<?xml version="1.0" standalone="no"?>
<!DOCTYPE svg PUBLIC "-//W3C//DTD SVG 1.1//EN" "http://www.w3.org/Graphics/SVG/1.1/DTD/svg11.dtd" >
<svg xmlns="http://www.w3.org/2000/svg">
<metadata></metadata>
<defs>
<font id="suisse_intllight" horiz-adv-x="1388" >
<font-face units-per-em="2048" ascent="1585" descent="-463" />
<missing-glyph horiz-adv-x="485" />
<glyph horiz-adv-x="0" />
<glyph horiz-adv-x="682" />
<glyph unicode=" "  horiz-adv-x="485" />
<glyph unicode="&#x09;" horiz-adv-x="485" />
<glyph unicode="&#xa0;" horiz-adv-x="485" />
<glyph unicode="!" horiz-adv-x="444" d="M133 0v193h178v-193h-178zM152 1044v441h141v-441l-31 -626h-80z" />
<glyph unicode="&#x22;" horiz-adv-x="647" d="M86 1485h147l-40 -492h-66zM414 1485h147l-41 -492h-65z" />
<glyph unicode="#" horiz-adv-x="1277" d="M10 461l19 121h278l49 352h-280l18 121h279l61 430h127l-61 -430h356l62 430h129l-62 -430h281l-17 -121h-280l-49 -352h280l-18 -121h-279l-63 -461h-129l63 461h-356l-64 -461h-129l64 461h-279zM434 582h357l49 352h-357z" />
<glyph unicode="$" horiz-adv-x="1183" d="M61 444h138q6 -153 92 -246t239 -110v629l-69 20q-371 108 -371 400q0 149 122.5 254.5t317.5 117.5v183h107v-185q196 -17 318.5 -140.5t125.5 -315.5h-137q-4 160 -89 244.5t-218 99.5v-576l20 -6q72 -21 124 -40t119 -55t109.5 -77t72.5 -105.5t30 -142.5 q0 -99 -39 -178.5t-106 -129.5t-150.5 -77.5t-179.5 -32.5v-184h-107v186q-197 18 -324.5 136.5t-144.5 330.5zM219 1143q0 -109 71 -175t204 -104l36 -12v545q-137 -11 -224 -80t-87 -174zM637 88q161 9 253.5 83t92.5 202q0 54 -18.5 98t-48 75t-77 58t-93.5 45t-109 37 v-598z" />
<glyph unicode="%" horiz-adv-x="2066" d="M88 1067q0 204 81.5 318t244.5 114t244 -114t81 -318t-81 -318t-244 -114t-244.5 114t-81.5 318zM203 1067q0 -168 56 -255t155 -87t154 86.5t55 255.5q0 170 -55 256t-154 86t-155 -86.5t-56 -255.5zM451 0l1024 1485h141l-1024 -1485h-141zM1327 418q0 204 81.5 318 t244.5 114t244 -114t81 -318t-81 -318t-244 -114t-244.5 114t-81.5 318zM1442 418q0 -168 56 -255t155 -87t154 86.5t55 255.5q0 170 -55 256t-154 86t-155 -86.5t-56 -255.5z" />
<glyph unicode="&#x26;" horiz-adv-x="1429" d="M66 403q0 162 99 271.5t294 175.5q-97 107 -142 190t-45 168q0 137 107 220t276 83q68 0 130 -18t115.5 -54t85.5 -99.5t32 -145.5q0 -259 -344 -389l375 -402q99 175 118 390h129q-36 -271 -168 -476l297 -317h-172l-200 215q-209 -242 -502 -242q-224 0 -354.5 119 t-130.5 311zM201 403q0 -142 97.5 -229.5t250.5 -87.5q253 0 426 211l-436 469q-338 -102 -338 -363zM408 1212q0 -34 11.5 -69.5t23.5 -60t42 -63.5t44 -55t53 -59l12 -14q154 53 224.5 124t70.5 177q0 96 -66 151.5t-170 55.5t-174.5 -47.5t-70.5 -139.5z" />
<glyph unicode="'" horiz-adv-x="319" d="M86 1485h147l-40 -492h-66z" />
<glyph unicode="(" horiz-adv-x="456" d="M88 563q0 273 78.5 517t185.5 405h105q-244 -427 -244 -922q0 -494 244 -921h-105q-107 161 -185.5 405t-78.5 516z" />
<glyph unicode=")" horiz-adv-x="456" d="M0 -358q242 424 242 921q0 498 -242 922h104q108 -161 186.5 -405t78.5 -517q0 -186 -42 -372.5t-99 -317t-124 -231.5h-104z" />
<glyph unicode="*" horiz-adv-x="776" d="M57 1221l31 104l246 -82v242h106v-242l248 80l33 -102l-246 -80l152 -207l-86 -64l-154 207l-149 -205l-88 62l149 205z" />
<glyph unicode="+" d="M135 496v120h496v474h129v-474h495v-120h-495v-496h-129v496h-496z" />
<glyph unicode="," horiz-adv-x="444" d="M115 -283l88 283h-70v193h178v-209l-102 -267h-94z" />
<glyph unicode="-" horiz-adv-x="749" d="M88 489v144h574v-144h-574z" />
<glyph unicode="." horiz-adv-x="444" d="M133 0v193h178v-193h-178z" />
<glyph unicode="/" horiz-adv-x="722" d="M0 0l592 1485h131l-594 -1485h-129z" />
<glyph unicode="0" horiz-adv-x="1361" d="M111 743q0 179 34.5 319t104 241t179 154.5t253.5 53.5t253 -53.5t178 -154t103.5 -241t34.5 -319.5t-34.5 -320t-103.5 -242t-178 -154.5t-253 -53.5q-286 0 -428.5 202.5t-142.5 567.5zM246 743q0 -327 115 -492t321 -165q205 0 320.5 165.5t115.5 491.5 q0 325 -115.5 490.5t-320.5 165.5q-206 0 -321 -165t-115 -491z" />
<glyph unicode="1" horiz-adv-x="665" d="M0 1202v86q83 0 135 4.5t95.5 16.5t69.5 36.5t45.5 60t35.5 91.5h86v-1497h-127v1202h-340z" />
<glyph unicode="2" horiz-adv-x="1165" d="M61 0v127q218 167 364.5 293t260.5 250.5t167.5 232.5t53.5 211q0 136 -89.5 210.5t-223.5 74.5q-74 0 -135.5 -19t-113.5 -60.5t-82.5 -116.5t-31.5 -177h-135q9 233 142 359t356 126q206 0 327 -102t121 -281q0 -221 -191 -454.5t-613 -550.5h849v-123h-1026z" />
<glyph unicode="3" horiz-adv-x="1167" d="M35 418h135q32 -163 138 -247.5t247 -84.5q174 0 281.5 85.5t107.5 238.5q0 319 -450 319h-13v113h13q204 0 307.5 72.5t103.5 209.5q0 118 -91 196.5t-249 78.5q-61 0 -118.5 -17.5t-110 -53t-89 -98.5t-48.5 -145h-136q25 195 159.5 310.5t352.5 115.5 q213 0 339 -100.5t126 -273.5q0 -116 -62 -210.5t-181 -135.5q129 -33 205.5 -125.5t76.5 -253.5q0 -107 -42.5 -192.5t-115.5 -138.5t-166 -80.5t-198 -27.5q-217 0 -359 126t-163 319z" />
<glyph unicode="4" horiz-adv-x="1257" d="M23 389v115l800 981h125v-971h289v-125h-289v-389h-127v389h-798zM174 514h647v795z" />
<glyph unicode="5" horiz-adv-x="1214" d="M88 418h135q32 -163 138 -247.5t247 -84.5q163 0 273 106.5t110 292.5q0 100 -34 178.5t-90.5 124t-123 68.5t-139.5 23q-121 0 -219 -56t-131 -135l-125 12l96 785h840v-123h-729l-66 -508q55 61 156 100t209 39q139 0 249 -57t176 -173.5t66 -275.5 q0 -123 -42.5 -222.5t-115.5 -162t-165 -96t-195 -33.5q-217 0 -357.5 125.5t-162.5 319.5z" />
<glyph unicode="6" horiz-adv-x="1222" d="M88 684q0 144 18.5 265t62 226.5t109 178.5t164.5 115t224 42q192 0 306.5 -101.5t137.5 -266.5h-135q-20 127 -107.5 191.5t-222.5 64.5q-199 0 -313.5 -168t-114.5 -483q52 107 163 172t255 65q221 0 360.5 -142.5t139.5 -365.5q0 -140 -62.5 -254t-180.5 -182 t-271 -68q-270 0 -401.5 183.5t-131.5 527.5zM242 471q0 -170 106.5 -277.5t272.5 -107.5q167 0 272.5 107.5t105.5 277.5q0 183 -103 292t-275 109t-275.5 -109t-103.5 -292z" />
<glyph unicode="7" horiz-adv-x="1036" d="M10 1362v123h1014v-123q-306 -224 -480.5 -564.5t-189.5 -797.5h-141q56 916 655 1362h-858z" />
<glyph unicode="8" horiz-adv-x="1239" d="M88 412q0 271 266 383q-100 42 -160.5 130.5t-60.5 215.5q0 164 132 267t353 103q223 0 355.5 -103t132.5 -267q0 -127 -60.5 -215.5t-162.5 -130.5q268 -111 268 -383q0 -204 -149 -321.5t-384 -117.5q-233 0 -381.5 117.5t-148.5 321.5zM223 412q0 -149 107.5 -237.5 t287.5 -88.5q182 0 290 88.5t108 237.5q0 150 -108.5 240.5t-289.5 90.5q-180 0 -287.5 -90.5t-107.5 -240.5zM264 1120q0 -130 96 -204t258 -74q164 0 260.5 74t96.5 204q0 131 -96.5 205t-260.5 74q-163 0 -258.5 -74t-95.5 -205z" />
<glyph unicode="9" horiz-adv-x="1196" d="M61 1008q0 140 62.5 254t180.5 181.5t271 67.5q270 0 401.5 -183t131.5 -525q0 -144 -18.5 -265.5t-62 -227.5t-109 -179.5t-164.5 -115.5t-224 -42q-192 0 -306.5 102.5t-137.5 266.5h137q18 -127 105.5 -191.5t222.5 -64.5q199 0 313.5 168.5t114.5 482.5 q-53 -106 -163.5 -171.5t-254.5 -65.5q-220 0 -360 143t-140 365zM197 1014q0 -182 103.5 -292t274.5 -110q172 0 275.5 110t103.5 292q0 170 -106.5 277.5t-272.5 107.5q-167 0 -272.5 -107.5t-105.5 -277.5z" />
<glyph unicode=":" horiz-adv-x="444" d="M133 0v193h178v-193h-178zM133 909v193h178v-193h-178z" />
<glyph unicode=";" horiz-adv-x="444" d="M115 -283l88 283h-70v193h178v-209l-102 -267h-94zM133 909v193h178v-193h-178z" />
<glyph unicode="&#x3c;" d="M160 496v120l1050 484v-139l-903 -406l903 -403v-140z" />
<glyph unicode="=" d="M215 293v121h959v-121h-959zM215 713v121h959v-121h-959z" />
<glyph unicode="&#x3e;" d="M178 12v140l903 403l-903 406v139l1051 -484v-120z" />
<glyph unicode="?" horiz-adv-x="968" d="M-4 1053q0 114 39 203t107 144t155.5 83t189.5 28q92 0 172 -21.5t142.5 -64t98.5 -111.5t36 -157q0 -240 -268 -424q-48 -34 -69 -49.5t-51.5 -44.5t-42.5 -53t-22 -61t-10 -83v-92h-129v92q0 42 6.5 79t15.5 65t29 57t35.5 48t48 46t54 43t63.5 47q44 32 76.5 61.5 t64.5 69.5t49 89.5t17 105.5q0 117 -89.5 181.5t-236.5 64.5q-90 0 -158.5 -28.5t-109 -78t-60.5 -110t-20 -129.5h-133zM322 0v193h178v-193h-178z" />
<glyph unicode="@" horiz-adv-x="1699" d="M98 715q0 162 61 305t167.5 245.5t257 162t321.5 59.5q157 0 289 -42t230 -122.5t153 -205t55 -281.5q0 -120 -30 -218.5t-80.5 -161.5t-113 -97.5t-130.5 -34.5q-94 0 -150 62t-61 161q-47 -99 -131.5 -155t-198.5 -56q-127 0 -209 88t-82 262q0 125 51.5 233.5 t150.5 177t224 68.5q96 0 158 -54t82 -136l23 153h102l-68 -464q-8 -38 -4 -79t15 -75.5t39.5 -57t70.5 -22.5q98 0 164 107.5t66 291.5q0 180 -81 307t-218 187.5t-318 60.5q-152 0 -280.5 -52t-217.5 -142.5t-138.5 -214.5t-49.5 -266q0 -183 73 -324t214.5 -222 t331.5 -81q107 0 214 24.5t185 61.5l41 -105q-86 -39 -206.5 -64.5t-233.5 -25.5q-221 0 -389.5 95.5t-258.5 263.5t-90 383zM569 684q0 -121 53.5 -182.5t145.5 -61.5q132 0 215.5 114t83.5 269q0 114 -50.5 174t-144.5 60q-131 0 -217 -109t-86 -264z" />
<glyph unicode="A" horiz-adv-x="1284" d="M0 0l563 1485h156l565 -1485h-149l-142 373h-706l-140 -373h-147zM334 500h610l-307 815z" />
<glyph unicode="B" horiz-adv-x="1335" d="M176 0v1485h506q85 0 155.5 -10t136.5 -36t111 -67.5t72 -108t27 -153.5q0 -115 -53.5 -201.5t-139.5 -126.5q254 -74 254 -354q0 -112 -39.5 -196t-110.5 -134t-162.5 -74t-203.5 -24h-553zM313 125h424q180 0 271.5 77.5t91.5 223.5q0 150 -91.5 218.5t-283.5 68.5 h-412v-588zM313 831h396q160 0 245.5 63t85.5 208q0 130 -85.5 194t-239.5 64h-402v-529z" />
<glyph unicode="C" horiz-adv-x="1431" d="M82 743q0 228 77 400.5t229 270t360 97.5q247 0 407.5 -136t208.5 -367h-143q-43 180 -173.5 276t-304.5 96q-110 0 -204 -42.5t-163.5 -122t-109 -201t-39.5 -271.5q0 -293 142.5 -466t373.5 -173q103 0 189.5 31t145 84t96 118t53.5 140h143q-49 -230 -211.5 -367 t-417.5 -137q-208 0 -358.5 99.5t-225.5 272t-75 398.5z" />
<glyph unicode="D" horiz-adv-x="1423" d="M176 0v1485h361q147 0 265.5 -22t221 -75.5t171 -137.5t107.5 -212t39 -295q0 -168 -39 -296.5t-107.5 -212t-171 -137t-221 -75.5t-265.5 -22h-361zM313 125h219q80 0 144 5t135 21.5t125 44t104.5 74t83.5 110.5t52.5 156t19.5 207t-19.5 207t-52.5 155.5t-83.5 110.5 t-104.5 74t-125 43.5t-135 21.5t-144 5h-219v-1235z" />
<glyph unicode="E" horiz-adv-x="1200" d="M176 0v1485h952v-127h-815v-524h766v-129h-766v-578h815v-127h-952z" />
<glyph unicode="F" horiz-adv-x="1083" d="M176 0v1485h907v-127h-770v-524h723v-129h-723v-705h-137z" />
<glyph unicode="G" horiz-adv-x="1525" d="M82 743q0 227 80 400.5t234 270.5t362 97q240 0 402.5 -122.5t211.5 -350.5h-143q-29 119 -104.5 198t-168.5 111.5t-202 32.5q-112 0 -208 -42.5t-167 -121.5t-111.5 -201t-40.5 -272q0 -293 142.5 -466t373.5 -173q71 0 136 11.5t132.5 42.5t116.5 79.5t80 128.5 t31 183v55h-416v127h547v-731h-121l-2 209q-151 -236 -506 -236q-208 0 -358.5 99.5t-225.5 272t-75 398.5z" />
<glyph unicode="H" horiz-adv-x="1501" d="M176 0v1485h137v-651h875v651h137v-1485h-137v705h-875v-705h-137z" />
<glyph unicode="I" horiz-adv-x="489" d="M176 0v1485h137v-1485h-137z" />
<glyph unicode="J" horiz-adv-x="1052" d="M23 424h127q2 -90 26 -156.5t65.5 -105.5t93.5 -57.5t116 -18.5q51 0 97.5 14t91.5 46t72 94.5t27 148.5v1096h138v-1098q0 -100 -34.5 -180.5t-93.5 -130.5t-135.5 -76.5t-162.5 -26.5q-194 0 -311 116.5t-117 334.5z" />
<glyph unicode="K" horiz-adv-x="1261" d="M176 0v1485h137v-762l750 762h176l-627 -637l650 -848h-168l-578 750l-203 -207v-543h-137z" />
<glyph unicode="L" horiz-adv-x="1099" d="M176 0v1485h137v-1358h787v-127h-924z" />
<glyph unicode="M" horiz-adv-x="1773" d="M176 0v1485h221l492 -1329l489 1329h219v-1485h-137v1354l-504 -1354h-139l-504 1354v-1354h-137z" />
<glyph unicode="N" horiz-adv-x="1501" d="M176 0v1485h199l813 -1340v1340h137v-1485h-199l-813 1337v-1337h-137z" />
<glyph unicode="O" horiz-adv-x="1523" d="M82 743q0 226 81 399.5t236 271t363 97.5t363 -97.5t236 -271t81 -399.5t-81 -400t-236.5 -272t-362.5 -98t-362.5 98t-236.5 272t-81 400zM227 743q0 -298 150 -468.5t385 -170.5t384.5 170.5t149.5 468.5q0 150 -40.5 271t-112 201t-169 122.5t-212.5 42.5 t-212.5 -42.5t-169.5 -122.5t-112.5 -201t-40.5 -271z" />
<glyph unicode="P" horiz-adv-x="1263" d="M176 0v1485h445q113 0 200.5 -11t166.5 -40.5t130 -78t81 -126.5t30 -182q0 -105 -30 -182.5t-81 -125t-130.5 -76t-166 -39t-200.5 -10.5h-308v-614h-137zM313 741h326q83 0 141 5t120 23.5t99.5 50.5t61.5 89.5t24 137.5t-24 138t-62 91.5t-99 52.5t-120 25t-141 6 h-326v-619z" />
<glyph unicode="Q" horiz-adv-x="1523" d="M82 743q0 226 81 399.5t236 271t363 97.5t363 -97.5t236 -271t81 -399.5q0 -333 -172 -542l198 -199l-90 -88l-196 197q-174 -138 -420 -138q-207 0 -362.5 98t-236.5 272t-81 400zM227 743q0 -298 150 -468.5t385 -170.5q184 0 319 107l-133 135l90 88l131 -133 q127 173 127 442q0 150 -40.5 271t-112 201t-169 122.5t-212.5 42.5t-212.5 -42.5t-169.5 -122.5t-112.5 -201t-40.5 -271z" />
<glyph unicode="R" horiz-adv-x="1314" d="M176 0v1485h436q95 0 168.5 -6.5t145.5 -22.5t123 -45.5t91 -73.5t59.5 -109.5t19.5 -150.5q0 -92 -23.5 -162t-68.5 -117.5t-105.5 -76.5t-140.5 -45l360 -676h-154l-350 659q-39 -4 -125 -4h-299v-655h-137zM313 780h318q58 0 102 2.5t92.5 10t83.5 20.5t68 35 t53.5 52.5t32.5 74t12 98.5q0 64 -15 112t-46.5 79t-68 50.5t-91.5 29.5t-104.5 13t-118.5 3h-318v-580z" />
<glyph unicode="S" horiz-adv-x="1245" d="M41 446h143q37 -173 155 -257.5t304 -84.5q67 0 133.5 13.5t132 43.5t106 88t40.5 136q0 66 -30 118.5t-85 89t-120.5 61t-149.5 42.5l-187 41q-64 15 -116 33.5t-104.5 50.5t-88 72t-58 98t-22.5 129q0 79 30.5 145.5t81.5 111t118.5 75.5t139.5 45t146 14 q220 0 366.5 -104.5t186.5 -292.5h-143q-38 129 -147 197.5t-277 68.5q-61 0 -120 -13t-115 -40.5t-90.5 -79.5t-34.5 -121q0 -198 286 -262l176 -39q54 -12 96 -23.5t96.5 -31t95 -41t82.5 -54t69 -69.5t44 -88t17 -110q0 -104 -45 -188t-121.5 -137t-174.5 -81.5 t-208 -28.5q-267 0 -424.5 131.5t-183.5 341.5z" />
<glyph unicode="T" horiz-adv-x="1136" d="M0 1358v127h1137v-127h-500v-1358h-137v1358h-500z" />
<glyph unicode="U" horiz-adv-x="1449" d="M154 600v885h137v-910q0 -244 100 -357.5t332 -113.5q234 0 335 123t101 373v885h137v-869q0 -332 -131.5 -487.5t-441.5 -155.5q-205 0 -328 61t-182 198t-59 368z" />
<glyph unicode="V" horiz-adv-x="1247" d="M10 1485h152l467 -1315l458 1315h148l-533 -1485h-157z" />
<glyph unicode="W" horiz-adv-x="1900" d="M20 1485h152l379 -1305l323 1305h154l334 -1305l371 1305h147l-444 -1485h-158l-328 1245l-325 -1245h-158z" />
<glyph unicode="X" horiz-adv-x="1310" d="M20 0l551 764l-512 721h170l428 -600l435 600h163l-516 -715l551 -770h-172l-465 649l-469 -649h-164z" />
<glyph unicode="Y" horiz-adv-x="1177" d="M-20 1485h153l447 -787l460 787h158l-555 -928v-557h-137v561z" />
<glyph unicode="Z" horiz-adv-x="1265" d="M78 0v123l944 1235h-870v127h1034v-123l-942 -1235h962v-127h-1128z" />
<glyph unicode="[" horiz-adv-x="526" d="M154 -358v1843h352v-121h-225v-1602h225v-120h-352z" />
<glyph unicode="\" horiz-adv-x="722" d="M0 1485h129l594 -1485h-131z" />
<glyph unicode="]" horiz-adv-x="526" d="M20 -238h226v1602h-226v121h353v-1843h-353v120z" />
<glyph unicode="^" horiz-adv-x="849" d="M-45 692l401 793h138l399 -793h-145l-324 633l-324 -633h-145z" />
<glyph unicode="_" horiz-adv-x="821" d="M23 0h778v-129h-778v129z" />
<glyph unicode="`" horiz-adv-x="468" d="M45 1485h195l184 -238h-113z" />
<glyph unicode="a" horiz-adv-x="1083" d="M68 274q0 181 181 268t595 128v39q0 90 -24.5 152.5t-70 94.5t-96.5 45t-116 13q-136 0 -219 -69t-91 -179h-133q22 163 144.5 261.5t306.5 98.5q100 0 175.5 -22t133 -71.5t87.5 -135t30 -205.5q0 -84 -1 -194t-1 -146q0 -114 12 -352h-129l-6 168q-56 -91 -160.5 -143 t-253.5 -52q-156 0 -260 83.5t-104 217.5zM209 276q0 -86 70.5 -138t181.5 -52q81 0 148 22t122.5 69t87 130.5t31.5 196.5v53q-352 -38 -496.5 -97.5t-144.5 -183.5z" />
<glyph unicode="b" horiz-adv-x="1179" d="M154 0v1485h127v-574q59 100 155 154.5t217 54.5q96 0 179.5 -39t146.5 -110.5t99 -181t36 -242.5q0 -266 -131.5 -420t-329.5 -154q-121 0 -217 54t-155 153v-180h-127zM272 547q0 -94 21 -172.5t56 -130.5t81.5 -88t96 -52t100.5 -16q157 0 253.5 122t96.5 337 t-96.5 337t-253.5 122q-51 0 -100.5 -16t-96 -52t-81.5 -88t-56 -130.5t-21 -172.5z" />
<glyph unicode="c" horiz-adv-x="1087" d="M68 547q0 261 133.5 417t371.5 156q181 0 304 -108t149 -264h-133q-30 122 -119.5 189t-212.5 67q-72 0 -136 -29t-114 -84t-79 -143.5t-29 -198.5q0 -223 102.5 -341t257.5 -118q134 0 223.5 74t114.5 184h135q-34 -171 -162 -273t-311 -102q-231 0 -363 157.5 t-132 416.5z" />
<glyph unicode="d" horiz-adv-x="1179" d="M66 547q0 265 131 419t329 154q121 0 217.5 -54.5t155.5 -154.5v574h127v-1485h-127v180q-59 -99 -155.5 -153t-217.5 -54q-96 0 -179.5 38.5t-146 110t-98.5 181.5t-36 244zM203 547q0 -215 96.5 -337t253.5 -122q51 0 100.5 16t96 52t81 88t55.5 130.5t21 172.5 t-21 172.5t-55.5 130.5t-81 88t-96 52t-100.5 16q-157 0 -253.5 -122t-96.5 -337z" />
<glyph unicode="e" horiz-adv-x="1142" d="M68 547q0 262 145 417.5t371 155.5q152 0 267.5 -79.5t173.5 -217.5q51 -121 51 -268q0 -20 -1 -41h-876q3 -196 114 -310t283 -114q129 0 216.5 63t119.5 177h133q-39 -169 -166.5 -263t-310.5 -94q-240 0 -380 157.5t-140 416.5zM203 631h733q0 95 -41.5 179.5 t-124 140t-188.5 55.5q-156 0 -257.5 -97.5t-121.5 -277.5z" />
<glyph unicode="f" horiz-adv-x="563" d="M33 991v111h151v137q0 71 10.5 115t39 75t78 43.5t128.5 12.5h90v-117h-63q-57 0 -84 -3.5t-45.5 -20t-22.5 -43t-4 -80.5v-119h219v-111h-219v-991h-127v991h-151z" />
<glyph unicode="g" horiz-adv-x="1173" d="M59 569q0 125 36.5 230t98.5 174.5t146 108t178 38.5q123 0 219.5 -54.5t153.5 -154.5v191h129v-1063q0 -143 -63 -240t-166 -140.5t-238 -43.5q-173 0 -292 88.5t-134 235.5h133q11 -93 87.5 -153t209.5 -60q159 0 246.5 74.5t87.5 224.5v200q-57 -100 -153.5 -153.5 t-219.5 -53.5q-95 0 -178.5 38t-145.5 107.5t-98.5 174.5t-36.5 231zM197 569q0 -202 96 -320t252 -118q65 0 126.5 26.5t114 77.5t84 137.5t31.5 196.5q0 109 -31.5 195.5t-84 137.5t-114 77.5t-126.5 26.5q-156 0 -252 -118.5t-96 -318.5z" />
<glyph unicode="h" horiz-adv-x="1138" d="M154 0v1485h127v-570q46 90 135 147.5t231 57.5q371 0 371 -426v-694h-127v659q0 83 -12.5 142.5t-42 107.5t-85.5 72.5t-137 24.5q-144 0 -238.5 -110.5t-94.5 -283.5v-612h-127z" />
<glyph unicode="i" horiz-adv-x="434" d="M154 0v1102h127v-1102h-127zM154 1282v203h127v-203h-127z" />
<glyph unicode="j" horiz-adv-x="434" d="M-18 -242h24q43 0 68.5 5t42.5 14t24.5 32t10 49t2.5 74v1170h127v-1172q0 -88 -8.5 -139t-34 -87t-70 -49t-119.5 -13h-67v116zM154 1282v203h127v-203h-127z" />
<glyph unicode="k" horiz-adv-x="978" d="M154 0v1485h127v-934l503 551h156l-408 -443l445 -659h-148l-378 569l-170 -184v-385h-127z" />
<glyph unicode="l" horiz-adv-x="434" d="M154 0v1485h127v-1485h-127z" />
<glyph unicode="m" horiz-adv-x="1794" d="M154 0v1102h127v-187q104 205 346 205q253 0 323 -219q66 109 155 164t218 55q182 0 266 -108.5t84 -317.5v-694h-127v659q0 84 -10.5 142.5t-37.5 107.5t-78.5 73t-129.5 24q-136 0 -224.5 -110t-88.5 -284v-612h-127v659q0 84 -10.5 142.5t-37.5 107.5t-78.5 73 t-129.5 24q-136 0 -224.5 -110t-88.5 -284v-612h-127z" />
<glyph unicode="n" horiz-adv-x="1138" d="M154 0v1102h127v-187q46 90 135 147.5t231 57.5q371 0 371 -426v-694h-127v659q0 83 -12.5 142.5t-42 107.5t-85.5 72.5t-137 24.5q-144 0 -238.5 -110.5t-94.5 -283.5v-612h-127z" />
<glyph unicode="o" horiz-adv-x="1132" d="M68 547q0 146 40 258t110 179.5t157.5 101.5t189.5 34t190 -34t158.5 -101.5t111 -180t40.5 -257.5t-40.5 -258t-111 -180.5t-158.5 -101.5t-190 -34q-81 0 -153.5 21t-135.5 66t-109 111t-72.5 162.5t-26.5 213.5zM203 547q0 -228 98 -342.5t264 -114.5t265.5 115 t99.5 342t-99.5 342t-265.5 115t-264 -114.5t-98 -342.5z" />
<glyph unicode="p" horiz-adv-x="1179" d="M154 -358v1460h127v-189q59 99 155 153t217 54q198 0 329.5 -153.5t131.5 -419.5q0 -133 -36.5 -243t-99 -181.5t-146 -110.5t-179.5 -39q-121 0 -217 54.5t-155 154.5v-540h-127zM272 547q0 -94 21 -172.5t56 -130.5t81.5 -88t96 -52t100.5 -16q157 0 253.5 122 t96.5 337t-96.5 337t-253.5 122q-51 0 -100.5 -16t-96 -52t-81.5 -88t-56 -130.5t-21 -172.5z" />
<glyph unicode="q" horiz-adv-x="1179" d="M66 547q0 134 36 243.5t98.5 181t146 110t179.5 38.5q121 0 217.5 -54t155.5 -153v189h127v-1460h-127v540q-59 -100 -155.5 -154.5t-217.5 -54.5q-198 0 -329 154.5t-131 419.5zM203 547q0 -215 96.5 -337t253.5 -122q51 0 100.5 16t96 52t81 88t55.5 130.5t21 172.5 t-21 172.5t-55.5 130.5t-81 88t-96 52t-100.5 16q-157 0 -253.5 -122t-96.5 -337z" />
<glyph unicode="r" horiz-adv-x="638" d="M154 0v1102h120v-201q36 94 129.5 151.5t196.5 57.5q25 0 37 -2v-135q-20 2 -57 2q-161 0 -231 -104.5t-70 -292.5v-578h-125z" />
<glyph unicode="s" horiz-adv-x="1067" d="M78 338h133q18 -125 109 -188.5t225 -63.5q53 0 103.5 11.5t95.5 34.5t72.5 63.5t27.5 93.5q0 38 -14.5 68t-38 51t-60 37.5t-74 26.5t-86.5 20l-172 32q-131 25 -215 99.5t-84 195.5q0 131 118.5 217t303.5 86q172 0 287.5 -92t136.5 -229h-133q-20 97 -102.5 153 t-200.5 56q-48 0 -95.5 -10t-90 -30t-69 -57t-26.5 -84q0 -149 207 -188l156 -29q62 -11 109.5 -24t101.5 -37t89 -54.5t58 -79t23 -108.5q0 -158 -125 -247t-313 -89q-181 0 -307 92.5t-150 272.5z" />
<glyph unicode="t" horiz-adv-x="616" d="M23 991v111h182v248h129v-248h217v-111h-217v-704q0 -42 1 -63t6 -44.5t13.5 -32.5t26 -18.5t42 -11.5t62.5 -2h66v-115h-105q-77 0 -121 10t-72.5 40t-38 79t-9.5 133v729h-182z" />
<glyph unicode="u" horiz-adv-x="1114" d="M121 399v703h127v-668q0 -66 6.5 -116t24.5 -95t47 -73.5t76 -45t110 -16.5q135 0 228.5 110.5t93.5 282.5v621h127v-1102h-127v178q-45 -88 -134 -146.5t-221 -58.5q-358 0 -358 426z" />
<glyph unicode="v" horiz-adv-x="954" d="M0 1102h143l342 -926l332 926h137l-409 -1102h-123z" />
<glyph unicode="w" horiz-adv-x="1464" d="M10 1102h142l243 -901l273 901h127l282 -903l236 903h141l-319 -1102h-119l-289 926l-281 -926h-116z" />
<glyph unicode="x" horiz-adv-x="980" d="M10 0l404 567l-381 535h151l305 -428l306 428h143l-377 -531l408 -571h-150l-334 465l-327 -465h-148z" />
<glyph unicode="y" horiz-adv-x="954" d="M0 1102h143l342 -926l332 926h137l-452 -1213q-30 -83 -55.5 -129t-64.5 -74t-85 -36t-125 -8h-72v110h74q37 0 57.5 2t45.5 10t41 25t34 47t35 76l35 88z" />
<glyph unicode="z" horiz-adv-x="983" d="M66 0v111l677 880h-632v111h784v-111l-680 -880h690v-111h-839z" />
<glyph unicode="{" horiz-adv-x="501" d="M23 504v121q40 2 68.5 14.5t45 31t26 48t12.5 59.5t3 72v373q0 77 10.5 124.5t39.5 80t78 45t128 12.5h47v-117h-20q-54 0 -83 -5t-46 -23t-21 -43.5t-4 -75.5v-375q0 -136 -39.5 -198.5t-124.5 -80.5v-6q85 -18 124.5 -80t39.5 -198v-377q0 -51 4 -76.5t21 -43.5t46 -23 t83 -5h20v-116h-47q-79 0 -128 12.5t-78 45t-39.5 80t-10.5 124.5v375q0 42 -3 72t-12.5 59.5t-26 48t-45 31t-68.5 14.5z" />
<glyph unicode="|" horiz-adv-x="479" d="M176 -184v1669h127v-1669h-127z" />
<glyph unicode="}" horiz-adv-x="501" d="M20 -242h21q71 0 102 12t41.5 40.5t10.5 95.5v377q0 136 39 198t124 80v6q-85 18 -124 80.5t-39 198.5v375q0 94 -26.5 120.5t-127.5 26.5h-21v117h48q79 0 128 -12.5t77.5 -45t38.5 -79.5t10 -125v-373q0 -109 31 -164t126 -61v-121q-95 -6 -126 -61t-31 -164v-375 q0 -78 -10 -125t-38.5 -79.5t-77.5 -45t-128 -12.5h-48v116z" />
<glyph unicode="~" d="M193 414q7 130 80.5 198t189.5 68q66 0 137 -23.5t121.5 -51.5t107.5 -51.5t97 -23.5q60 0 98.5 38t42.5 112h131q-9 -130 -82.5 -198t-189.5 -68q-56 0 -123 23.5t-119 51t-113.5 51t-107.5 23.5q-59 0 -97 -37t-44 -112h-129z" />
<glyph unicode="&#xa1;" horiz-adv-x="444" d="M133 909v193h178v-193h-178zM152 82l30 627h80l31 -627v-440h-141v440z" />
<glyph unicode="&#xa2;" horiz-adv-x="1056" d="M68 547q0 238 113.5 390.5t316.5 176.5v168h110v-164q166 -10 280 -116.5t138 -253.5h-133q-27 110 -103 174.5t-182 76.5v-907q116 11 193 83t100 173h135q-32 -160 -147 -260.5t-281 -112.5v-184h-110v186q-203 23 -316.5 177t-113.5 393zM203 549q0 -200 82 -315 t213 -138v901q-130 -25 -212.5 -140.5t-82.5 -307.5z" />
<glyph unicode="&#xa3;" horiz-adv-x="1226" d="M59 694v92h224q-7 12 -31 57.5t-33 62.5t-27 56t-25 63.5t-13.5 58.5t-6.5 65q0 76 28.5 138t76.5 103t112.5 69t133.5 40t143 12q222 0 357.5 -128t138.5 -336h-138q-2 92 -31 161t-79.5 110t-113.5 61t-138 20q-50 0 -96 -6t-94.5 -23.5t-83.5 -44t-57.5 -71.5 t-22.5 -103q0 -35 7.5 -70.5t25 -77.5t30.5 -68t40.5 -77.5t37.5 -71.5h414v-92h-369q43 -101 43 -176q0 -113 -59.5 -216t-143.5 -155l2 -2q85 27 150 27q63 0 188 -42t195 -42q121 0 241 49l48 -117q-129 -57 -269 -57q-77 0 -223.5 42t-228.5 42q-167 0 -303 -72l-46 103 q37 17 74 40t82 61.5t78.5 82.5t56.5 106t23 128q0 86 -49 198h-269z" />
<glyph unicode="&#xa4;" horiz-adv-x="1302" d="M115 279l141 143q-94 127 -94 287q0 159 92 288l-139 144l92 90l139 -137q129 104 299 104q174 0 307 -108l144 141l92 -90l-146 -148q93 -131 93 -284q0 -152 -93 -283l146 -147l-92 -93l-146 144q-134 -105 -305 -105q-166 0 -297 101l-141 -140zM289 709 q0 -158 100 -264.5t254 -106.5q161 0 265 106.5t104 264.5q0 163 -104 272t-265 109q-154 0 -254 -109t-100 -272z" />
<glyph unicode="&#xa5;" horiz-adv-x="1218" d="M4 1485h143l453 -826l467 826h147l-534 -916h319v-123h-340v-120h340v-121h-340v-205h-129v205h-313v121h313v120h-313v123h297z" />
<glyph unicode="&#xa6;" horiz-adv-x="434" d="M154 -184v624h127v-624h-127zM154 860v625h127v-625h-127z" />
<glyph unicode="&#xa7;" horiz-adv-x="1153" d="M66 666q0 106 78.5 189.5t191.5 129.5q-79 56 -117.5 117.5t-38.5 142.5q0 85 55 147t138.5 90.5t181.5 28.5q176 0 289.5 -87.5t128.5 -245.5h-135q-39 221 -291 221q-107 0 -172.5 -40t-65.5 -110q0 -63 43.5 -111.5t145.5 -103.5l293 -160q149 -80 221.5 -156 t72.5 -188q0 -108 -68 -198.5t-190 -151.5q138 -104 138 -243q0 -147 -112.5 -231.5t-283.5 -84.5q-172 0 -285.5 91.5t-136.5 252.5h138q37 -231 286 -231q117 0 188.5 47.5t71.5 134.5q0 70 -47.5 128.5t-173.5 125.5l-274 147q-136 72 -203 152.5t-67 196.5zM195 672 q0 -71 40 -124.5t146 -111.5l293 -157l59 -35q102 54 160.5 116.5t58.5 143.5q0 79 -55.5 140t-179.5 128l-277 150q-43 -18 -81.5 -39.5t-77.5 -52.5t-62.5 -72t-23.5 -86z" />
<glyph unicode="&#xa8;" horiz-adv-x="628" d="M45 1282v203h127v-203h-127zM455 1282v203h129v-203h-129z" />
<glyph unicode="&#xa9;" horiz-adv-x="1689" d="M76 741q0 168 60.5 312.5t164.5 244.5t245.5 156.5t299.5 56.5t299 -56.5t244.5 -156.5t164 -244.5t60.5 -312.5t-60.5 -312.5t-164 -243.5t-244.5 -155.5t-299 -56.5q-159 0 -300 56.5t-245 155.5t-164.5 243.5t-60.5 312.5zM201 741q0 -191 85.5 -342t232.5 -233 t327 -82q183 0 329.5 82t230 232.5t83.5 342.5q0 194 -83.5 345t-230 233t-329.5 82q-135 0 -253.5 -48t-205 -133.5t-136.5 -209.5t-50 -269zM459 748q0 196 105.5 308.5t283.5 112.5q138 0 225.5 -69t118.5 -182l-117 -39q-19 83 -86 129.5t-149 46.5q-107 0 -180.5 -80 t-73.5 -227t74 -230.5t180 -83.5q81 0 149 40.5t90 121.5l119 -35q-37 -106 -126.5 -172.5t-231.5 -66.5q-180 0 -280.5 113t-100.5 313z" />
<glyph unicode="&#xaa;" horiz-adv-x="700" d="M70 1059q0 44 19 77.5t52 56.5t88 40t114 27.5t144 19.5v27q0 135 -141 135q-139 0 -149 -121h-113q7 97 84 153t180 56q131 0 193 -60.5t61 -187.5l-1 -92l-1 -55q-2 -119 10 -238h-112v90q-64 -104 -222 -104q-89 0 -147.5 47t-58.5 129zM188 1061q0 -42 32 -67t85 -25 q83 0 137 48t54 161v14q-60 -6 -102.5 -12t-84 -16.5t-66.5 -23.5t-40 -33t-15 -46z" />
<glyph unicode="&#xab;" horiz-adv-x="960" d="M33 580l321 464h135l-307 -462l307 -465h-133zM451 580l321 464h135l-307 -462l307 -465h-133z" />
<glyph unicode="&#xac;" d="M119 760v121h1069v-680h-129v559h-940z" />
<glyph unicode="&#xad;" horiz-adv-x="749" d="M88 489v144h574v-144h-574z" />
<glyph unicode="&#xae;" horiz-adv-x="1689" d="M76 741q0 168 60.5 312.5t164.5 244.5t245.5 156.5t299.5 56.5t299 -56.5t244.5 -156.5t164 -244.5t60.5 -312.5t-60.5 -312.5t-164 -243.5t-244.5 -155.5t-299 -56.5q-159 0 -300 56.5t-245 155.5t-164.5 243.5t-60.5 312.5zM201 741q0 -191 85.5 -342t232.5 -233 t327 -82q183 0 329.5 82t230 232.5t83.5 342.5q0 194 -83.5 345t-230 233t-329.5 82q-135 0 -253.5 -48t-205 -133.5t-136.5 -209.5t-50 -269zM557 358v816h246q77 0 132 -5.5t105 -21t80.5 -43t48 -72t17.5 -106.5q0 -72 -39 -131t-115 -90l187 -347h-138l-170 320 q-14 -2 -47 -2h-188v-318h-119zM676 793h184q197 0 197 131q0 73 -54 101t-153 28h-174v-260z" />
<glyph unicode="&#xaf;" horiz-adv-x="659" d="M45 1331v103h569v-103h-569z" />
<glyph unicode="&#xb0;" horiz-adv-x="690" d="M45 1210q0 127 87.5 214t211.5 87q127 0 215 -87t88 -214q0 -126 -88.5 -213.5t-214.5 -87.5q-124 0 -211.5 87.5t-87.5 213.5zM178 1210q0 -79 46 -133.5t120 -54.5q77 0 124.5 54.5t47.5 133.5t-47.5 134t-124.5 55q-74 0 -120 -55t-46 -134z" />
<glyph unicode="&#xb1;" d="M135 0v121h1120v-121h-1120zM135 600v121h496v369h129v-369h495v-121h-495v-379h-129v379h-496z" />
<glyph unicode="&#xb2;" horiz-adv-x="727" d="M55 897v96q240 177 353.5 297t113.5 223q0 65 -40.5 104.5t-112.5 39.5q-75 0 -126.5 -45t-52.5 -139h-112q-2 123 78 198.5t215 75.5q119 0 192.5 -58t73.5 -161q0 -57 -24.5 -116t-62 -109t-98.5 -106.5t-116.5 -100.5t-132.5 -99h456v-100h-604z" />
<glyph unicode="&#xb3;" horiz-adv-x="720" d="M59 1145h113q8 -79 54 -125.5t132 -46.5q84 0 135.5 41.5t51.5 115.5q0 158 -240 158h-18v101h14q111 0 166 31.5t55 103.5q0 64 -45.5 98.5t-114.5 34.5q-82 0 -127 -44t-51 -116h-112q9 113 86.5 181.5t206.5 68.5q56 0 103 -11t86 -35t61 -66t22 -99q0 -65 -35.5 -116 t-99.5 -79q157 -51 157 -208q0 -120 -87.5 -185t-215.5 -65q-140 0 -214.5 74t-82.5 188z" />
<glyph unicode="&#xb4;" horiz-adv-x="468" d="M45 1247l184 238h195l-266 -238h-113z" />
<glyph unicode="&#xb6;" horiz-adv-x="1007" d="M0 1100q0 182 125.5 283.5t368.5 101.5h358v-1667h-127v1546h-236v-1546h-129v919q-70 8 -132.5 33.5t-114.5 68.5t-82.5 110.5t-30.5 150.5z" />
<glyph unicode="&#xb7;" horiz-adv-x="442" d="M133 455v192h178v-192h-178z" />
<glyph unicode="&#xb8;" horiz-adv-x="448" d="M45 -371l29 82q52 -18 98 -18q50 0 83.5 15.5t33.5 49.5q0 30 -25 46t-63 16q-51 0 -78 -19l-43 31l108 174h86l-65 -104q23 4 51 4q62 0 102.5 -37t40.5 -100q0 -77 -60.5 -117.5t-147.5 -40.5q-86 0 -150 18z" />
<glyph unicode="&#xb9;" horiz-adv-x="458" d="M31 1548v74q96 5 145 26t84 85h74v-836h-109v651h-194z" />
<glyph unicode="&#xba;" horiz-adv-x="716" d="M61 1204q0 158 87 241t208 83q123 0 210 -83t87 -241q0 -157 -87 -239t-210 -82q-57 0 -108.5 19.5t-94 57t-67.5 101t-25 143.5zM176 1204q0 -116 50.5 -171.5t129.5 -55.5t130 58t51 169q0 116 -50.5 173t-130.5 57q-79 0 -129.5 -55.5t-50.5 -174.5z" />
<glyph unicode="&#xbb;" horiz-adv-x="960" d="M53 117l307 465l-307 462h135l322 -464l-324 -463h-133zM471 117l307 465l-307 462h135l322 -464l-324 -463h-133z" />
<glyph unicode="&#xbc;" horiz-adv-x="1634" d="M31 1300v74q96 5 145 26t84 85h74v-836h-109v651h-194zM82 0l1024 1485h141l-1024 -1485h-141zM909 205v102l410 529h111v-529h153v-102h-153v-205h-109v205h-412zM1030 307h291v379z" />
<glyph unicode="&#xbd;" horiz-adv-x="1597" d="M31 1300v74q96 5 145 26t84 85h74v-836h-109v651h-194zM82 0l1024 1485h141l-1024 -1485h-141zM926 0v96q240 177 353.5 297t113.5 223q0 64 -41 104t-113 40q-75 0 -126 -45t-52 -140h-113q-2 124 78.5 199.5t214.5 75.5q119 0 192.5 -58t73.5 -161q0 -57 -24.5 -116 t-62 -109t-98.5 -106.5t-116.5 -100.5t-132.5 -99h457v-100h-604z" />
<glyph unicode="&#xbe;" horiz-adv-x="1896" d="M59 897h113q8 -79 54 -125.5t132 -46.5q83 0 135 42t52 116q0 157 -240 157h-18v101h14q111 0 166 31.5t55 103.5q0 64 -45.5 98.5t-114.5 34.5q-82 0 -127 -44t-51 -116h-112q9 113 86.5 181.5t206.5 68.5q56 0 103 -11t86 -35t61 -66t22 -99q0 -65 -35.5 -115.5 t-99.5 -78.5q157 -51 157 -209q0 -120 -87.5 -185t-215.5 -65q-140 0 -214.5 74t-82.5 188zM344 0l1024 1485h141l-1024 -1485h-141zM1171 205v102l410 529h111v-529h153v-102h-153v-205h-109v205h-412zM1292 307h291v379z" />
<glyph unicode="&#xbf;" horiz-adv-x="968" d="M0 -20q0 56 16 108t40.5 91t62.5 78.5t71 66t78 57.5q46 32 69.5 49.5t52.5 45t41.5 53t22 62t9.5 81.5v49h129v-49q0 -49 -6.5 -89t-25 -75.5t-34.5 -59t-52 -55.5t-58.5 -49.5t-73.5 -54.5q-43 -32 -63 -47t-53.5 -47.5t-49 -59t-28.5 -66.5t-13 -85q0 -117 89 -181.5 t237 -64.5q88 0 156 28.5t107 74.5t59.5 96t23.5 102l129 -2q-9 -184 -146 -298t-339 -114q-87 0 -166 22t-143.5 64t-103 112t-38.5 157zM434 909v193h178v-193h-178z" />
<glyph unicode="&#xc0;" horiz-adv-x="1284" d="M0 0l563 1485h156l565 -1485h-149l-142 373h-706l-140 -373h-147zM262 1815h221l224 -232h-132zM334 500h610l-307 815z" />
<glyph unicode="&#xc1;" horiz-adv-x="1284" d="M0 0l563 1485h156l565 -1485h-149l-142 373h-706l-140 -373h-147zM334 500h610l-307 815zM573 1583l226 232h219l-311 -232h-134z" />
<glyph unicode="&#xc2;" horiz-adv-x="1284" d="M0 0l563 1485h156l565 -1485h-149l-142 373h-706l-140 -373h-147zM283 1583l276 232h170l270 -232h-153l-205 158l-207 -158h-151zM334 500h610l-307 815z" />
<glyph unicode="&#xc3;" horiz-adv-x="1284" d="M0 0l563 1485h156l565 -1485h-149l-142 373h-706l-140 -373h-147zM303 1595q13 97 71.5 151t135.5 54q48 0 97.5 -24.5t90.5 -49t70 -24.5q79 0 102 98h111q-17 -95 -71.5 -150t-133.5 -55q-39 0 -79.5 16t-68.5 35.5t-60 35.5t-56 16q-74 0 -98 -103h-111zM334 500h610 l-307 815z" />
<glyph unicode="&#xc4;" horiz-adv-x="1284" d="M0 0l563 1485h156l565 -1485h-149l-142 373h-706l-140 -373h-147zM334 500h610l-307 815zM373 1597v203h137v-203h-137zM774 1597v203h137v-203h-137z" />
<glyph unicode="&#xc5;" horiz-adv-x="1284" d="M0 0l563 1485h156l565 -1485h-149l-142 373h-706l-140 -373h-147zM334 500h610l-307 815zM457 1741q0 75 54 124.5t130 49.5q78 0 132 -49.5t54 -124.5t-53.5 -124.5t-132.5 -49.5q-77 0 -130.5 50t-53.5 124zM543 1741q0 -43 30 -69.5t68 -26.5q39 0 69.5 26.5 t30.5 69.5q0 44 -30.5 71t-69.5 27q-38 0 -68 -27.5t-30 -70.5z" />
<glyph unicode="&#xc6;" horiz-adv-x="1935" d="M0 0l909 1485h953v-127h-815v-524h768v-129h-768v-578h815v-127h-953v373h-536l-226 -373h-147zM451 500h458v755z" />
<glyph unicode="&#xc7;" horiz-adv-x="1431" d="M82 743q0 228 77 400.5t229 270t360 97.5q247 0 407.5 -136t208.5 -367h-143q-43 180 -173.5 276t-304.5 96q-110 0 -204 -42.5t-163.5 -122t-109 -201t-39.5 -271.5q0 -293 142.5 -466t373.5 -173q103 0 189.5 31t145 84t96 118t53.5 140h143q-49 -227 -207 -363.5 t-407 -140.5l-45 -71q23 4 51 4q62 0 102.5 -37t40.5 -100q0 -77 -61 -117.5t-148 -40.5q-85 0 -149 18l28 82q52 -18 99 -18q50 0 83.5 15.5t33.5 49.5q0 30 -25 46t-64 16q-50 0 -77 -19l-43 31l90 145q-188 16 -322 118.5t-201 268t-67 379.5z" />
<glyph unicode="&#xc8;" horiz-adv-x="1200" d="M176 0v1485h952v-127h-815v-524h766v-129h-766v-578h815v-127h-952zM313 1815h222l223 -232h-131z" />
<glyph unicode="&#xc9;" horiz-adv-x="1200" d="M176 0v1485h952v-127h-815v-524h766v-129h-766v-578h815v-127h-952zM543 1583l225 232h219l-311 -232h-133z" />
<glyph unicode="&#xca;" horiz-adv-x="1200" d="M176 0v1485h952v-127h-815v-524h766v-129h-766v-578h815v-127h-952zM293 1583l276 232h170l271 -232h-154l-205 158l-207 -158h-151z" />
<glyph unicode="&#xcb;" horiz-adv-x="1200" d="M176 0v1485h952v-127h-815v-524h766v-129h-766v-578h815v-127h-952zM403 1597v203h138v-203h-138zM805 1597v203h137v-203h-137z" />
<glyph unicode="&#xcc;" horiz-adv-x="489" d="M-135 1815h221l223 -232h-131zM176 0v1485h137v-1485h-137z" />
<glyph unicode="&#xcd;" horiz-adv-x="489" d="M176 0v1485h137v-1485h-137zM176 1583l225 232h220l-312 -232h-133z" />
<glyph unicode="&#xce;" horiz-adv-x="489" d="M-115 1583l277 232h170l270 -232h-153l-205 158l-207 -158h-152zM176 0v1485h137v-1485h-137z" />
<glyph unicode="&#xcf;" horiz-adv-x="489" d="M-25 1597v203h138v-203h-138zM176 0v1485h137v-1485h-137zM377 1597v203h137v-203h-137z" />
<glyph unicode="&#xd0;" horiz-adv-x="1445" d="M23 694v127h174v664h360q147 0 266 -22t221.5 -75.5t171 -137.5t107.5 -212t39 -295q0 -168 -39 -296.5t-107.5 -212t-171.5 -137t-221.5 -75.5t-265.5 -22h-360v694h-174zM334 125h219q80 0 144 5t135 21.5t125 44t104.5 74t83.5 110.5t52.5 156t19.5 207t-19.5 207 t-52.5 155.5t-83.5 110.5t-104.5 74t-125 43.5t-135 21.5t-144 5h-219v-539h348v-127h-348v-569z" />
<glyph unicode="&#xd1;" horiz-adv-x="1501" d="M176 0v1485h199l813 -1340v1340h137v-1485h-199l-813 1337v-1337h-137zM440 1595q13 97 71.5 151t135.5 54q48 0 97.5 -24.5t90.5 -49t70 -24.5q80 0 103 98h110q-17 -95 -71.5 -150t-133.5 -55q-39 0 -79.5 16t-68.5 35.5t-60 35.5t-56 16q-74 0 -98 -103h-111z" />
<glyph unicode="&#xd2;" horiz-adv-x="1523" d="M82 743q0 226 81 399.5t236 271t363 97.5t363 -97.5t236 -271t81 -399.5t-81 -400t-236.5 -272t-362.5 -98t-362.5 98t-236.5 272t-81 400zM227 743q0 -298 150 -468.5t385 -170.5t384.5 170.5t149.5 468.5q0 150 -40.5 271t-112 201t-169 122.5t-212.5 42.5 t-212.5 -42.5t-169.5 -122.5t-112.5 -201t-40.5 -271zM383 1815h221l223 -232h-131z" />
<glyph unicode="&#xd3;" horiz-adv-x="1523" d="M82 743q0 226 81 399.5t236 271t363 97.5t363 -97.5t236 -271t81 -399.5t-81 -400t-236.5 -272t-362.5 -98t-362.5 98t-236.5 272t-81 400zM227 743q0 -298 150 -468.5t385 -170.5t384.5 170.5t149.5 468.5q0 150 -40.5 271t-112 201t-169 122.5t-212.5 42.5 t-212.5 -42.5t-169.5 -122.5t-112.5 -201t-40.5 -271zM694 1583l226 232h219l-312 -232h-133z" />
<glyph unicode="&#xd4;" horiz-adv-x="1523" d="M82 743q0 226 81 399.5t236 271t363 97.5t363 -97.5t236 -271t81 -399.5t-81 -400t-236.5 -272t-362.5 -98t-362.5 98t-236.5 272t-81 400zM227 743q0 -298 150 -468.5t385 -170.5t384.5 170.5t149.5 468.5q0 150 -40.5 271t-112 201t-169 122.5t-212.5 42.5 t-212.5 -42.5t-169.5 -122.5t-112.5 -201t-40.5 -271zM403 1583l277 232h170l270 -232h-153l-205 158l-207 -158h-152z" />
<glyph unicode="&#xd5;" horiz-adv-x="1523" d="M82 743q0 226 81 399.5t236 271t363 97.5t363 -97.5t236 -271t81 -399.5t-81 -400t-236.5 -272t-362.5 -98t-362.5 98t-236.5 272t-81 400zM227 743q0 -298 150 -468.5t385 -170.5t384.5 170.5t149.5 468.5q0 150 -40.5 271t-112 201t-169 122.5t-212.5 42.5 t-212.5 -42.5t-169.5 -122.5t-112.5 -201t-40.5 -271zM424 1595q13 97 71.5 151t135.5 54q48 0 97.5 -24.5t90.5 -49t70 -24.5q79 0 102 98h111q-17 -95 -71.5 -150t-133.5 -55q-39 0 -79.5 16t-68.5 35.5t-60 35.5t-56 16q-74 0 -98 -103h-111z" />
<glyph unicode="&#xd6;" horiz-adv-x="1523" d="M82 743q0 226 81 399.5t236 271t363 97.5t363 -97.5t236 -271t81 -399.5t-81 -400t-236.5 -272t-362.5 -98t-362.5 98t-236.5 272t-81 400zM227 743q0 -298 150 -468.5t385 -170.5t384.5 170.5t149.5 468.5q0 150 -40.5 271t-112 201t-169 122.5t-212.5 42.5 t-212.5 -42.5t-169.5 -122.5t-112.5 -201t-40.5 -271zM494 1597v203h137v-203h-137zM895 1597v203h137v-203h-137z" />
<glyph unicode="&#xd7;" d="M223 172l381 381l-381 381l90 90l381 -381l381 381l92 -90l-383 -381l383 -381l-92 -90l-381 381l-381 -381z" />
<glyph unicode="&#xd8;" horiz-adv-x="1523" d="M82 743q0 226 81 399.5t236 271t363 97.5q273 0 455 -168l129 152l81 -72l-139 -163q154 -206 154 -517q0 -226 -81 -400t-236.5 -272t-362.5 -98q-260 0 -438 154l-134 -156l-81 74l139 164q-166 208 -166 534zM227 743q0 -262 115 -424l782 916q-145 145 -362 145 q-115 0 -212.5 -42.5t-169.5 -122.5t-112.5 -201t-40.5 -271zM414 236q141 -132 348 -132q235 0 384.5 170.5t149.5 468.5q0 243 -104 404z" />
<glyph unicode="&#xd9;" horiz-adv-x="1449" d="M154 600v885h137v-910q0 -244 100 -357.5t332 -113.5q234 0 335 123t101 373v885h137v-869q0 -332 -131.5 -487.5t-441.5 -155.5q-205 0 -328 61t-182 198t-59 368zM406 1815h221l223 -232h-131z" />
<glyph unicode="&#xda;" horiz-adv-x="1449" d="M154 600v885h137v-910q0 -244 100 -357.5t332 -113.5q234 0 335 123t101 373v885h137v-869q0 -332 -131.5 -487.5t-441.5 -155.5q-205 0 -328 61t-182 198t-59 368zM614 1583l226 232h219l-311 -232h-134z" />
<glyph unicode="&#xdb;" horiz-adv-x="1449" d="M154 600v885h137v-910q0 -244 100 -357.5t332 -113.5q234 0 335 123t101 373v885h137v-869q0 -332 -131.5 -487.5t-441.5 -155.5q-205 0 -328 61t-182 198t-59 368zM365 1583l276 232h170l270 -232h-153l-205 158l-207 -158h-151z" />
<glyph unicode="&#xdc;" horiz-adv-x="1449" d="M154 600v885h137v-910q0 -244 100 -357.5t332 -113.5q234 0 335 123t101 373v885h137v-869q0 -332 -131.5 -487.5t-441.5 -155.5q-205 0 -328 61t-182 198t-59 368zM455 1597v203h137v-203h-137zM856 1597v203h137v-203h-137z" />
<glyph unicode="&#xdd;" horiz-adv-x="1177" d="M-20 1485h153l447 -787l460 787h158l-555 -928v-557h-137v561zM479 1583l226 232h219l-312 -232h-133z" />
<glyph unicode="&#xde;" horiz-adv-x="1228" d="M176 0v1485h137v-273h287q112 0 200 -12t166.5 -43.5t130 -81.5t81.5 -129t30 -184t-30 -183.5t-81.5 -127.5t-130.5 -79t-166.5 -41.5t-199.5 -11.5h-287v-319h-137zM313 446h303q82 0 142 6t121 26t99.5 53.5t62.5 92t24 138.5t-24 139t-62.5 93.5t-99 55t-121.5 27 t-142 6.5h-303v-637z" />
<glyph unicode="&#xdf;" horiz-adv-x="1253" d="M154 0v993q0 134 18.5 215.5t58.5 137.5q113 165 408 165q197 0 317.5 -94t120.5 -252q0 -122 -59 -205.5t-162 -121.5q150 -29 240 -136.5t90 -277.5q0 -93 -27 -169t-75 -128t-115 -87t-145 -51t-167 -16q-119 0 -208 17l22 123q92 -21 199 -21q60 0 113 9.5t103 33.5 t86 60t57.5 93t21.5 130q0 89 -33 155.5t-93.5 107.5t-140 61t-176.5 20h-18v125h20q160 0 247 70.5t87 191.5q0 115 -84 182.5t-223 67.5q-105 0 -177.5 -25.5t-115.5 -87.5q-63 -88 -63 -305v-981h-127z" />
<glyph unicode="&#xe0;" horiz-adv-x="1083" d="M68 274q0 181 181 268t595 128v39q0 90 -24.5 152.5t-70 94.5t-96.5 45t-116 13q-136 0 -219 -69t-91 -179h-133q22 163 144.5 261.5t306.5 98.5q100 0 175.5 -22t133 -71.5t87.5 -135t30 -205.5q0 -84 -1 -194t-1 -146q0 -114 12 -352h-129l-6 168q-56 -91 -160.5 -143 t-253.5 -52q-156 0 -260 83.5t-104 217.5zM209 276q0 -86 70.5 -138t181.5 -52q81 0 148 22t122.5 69t87 130.5t31.5 196.5v53q-352 -38 -496.5 -97.5t-144.5 -183.5zM244 1485h194l185 -238h-113z" />
<glyph unicode="&#xe1;" horiz-adv-x="1083" d="M68 274q0 181 181 268t595 128v39q0 90 -24.5 152.5t-70 94.5t-96.5 45t-116 13q-136 0 -219 -69t-91 -179h-133q22 163 144.5 261.5t306.5 98.5q100 0 175.5 -22t133 -71.5t87.5 -135t30 -205.5q0 -84 -1 -194t-1 -146q0 -114 12 -352h-129l-6 168q-56 -91 -160.5 -143 t-253.5 -52q-156 0 -260 83.5t-104 217.5zM209 276q0 -86 70.5 -138t181.5 -52q81 0 148 22t122.5 69t87 130.5t31.5 196.5v53q-352 -38 -496.5 -97.5t-144.5 -183.5zM469 1247l184 238h195l-266 -238h-113z" />
<glyph unicode="&#xe2;" horiz-adv-x="1083" d="M68 274q0 181 181 268t595 128v39q0 90 -24.5 152.5t-70 94.5t-96.5 45t-116 13q-136 0 -219 -69t-91 -179h-133q22 163 144.5 261.5t306.5 98.5q100 0 175.5 -22t133 -71.5t87.5 -135t30 -205.5q0 -84 -1 -194t-1 -146q0 -114 12 -352h-129l-6 168q-56 -91 -160.5 -143 t-253.5 -52q-156 0 -260 83.5t-104 217.5zM209 276q0 -86 70.5 -138t181.5 -52q81 0 148 22t122.5 69t87 130.5t31.5 196.5v53q-352 -38 -496.5 -97.5t-144.5 -183.5zM215 1247l260 238h146l253 -238h-131l-198 156l-201 -156h-129z" />
<glyph unicode="&#xe3;" horiz-adv-x="1083" d="M68 274q0 181 181 268t595 128v39q0 90 -24.5 152.5t-70 94.5t-96.5 45t-116 13q-136 0 -219 -69t-91 -179h-133q22 163 144.5 261.5t306.5 98.5q100 0 175.5 -22t133 -71.5t87.5 -135t30 -205.5q0 -84 -1 -194t-1 -146q0 -114 12 -352h-129l-6 168q-56 -91 -160.5 -143 t-253.5 -52q-156 0 -260 83.5t-104 217.5zM207 1272q13 96 71.5 150.5t135.5 54.5q38 0 77.5 -15.5t67 -34t58.5 -34t55 -15.5q79 0 102 99h111q-17 -95 -71.5 -150t-133.5 -55q-49 0 -100 25t-93 50t-71 25q-75 0 -99 -100h-110zM209 276q0 -86 70.5 -138t181.5 -52 q81 0 148 22t122.5 69t87 130.5t31.5 196.5v53q-352 -38 -496.5 -97.5t-144.5 -183.5z" />
<glyph unicode="&#xe4;" horiz-adv-x="1083" d="M68 274q0 181 181 268t595 128v39q0 90 -24.5 152.5t-70 94.5t-96.5 45t-116 13q-136 0 -219 -69t-91 -179h-133q22 163 144.5 261.5t306.5 98.5q100 0 175.5 -22t133 -71.5t87.5 -135t30 -205.5q0 -84 -1 -194t-1 -146q0 -114 12 -352h-129l-6 168q-56 -91 -160.5 -143 t-253.5 -52q-156 0 -260 83.5t-104 217.5zM209 276q0 -86 70.5 -138t181.5 -52q81 0 148 22t122.5 69t87 130.5t31.5 196.5v53q-352 -38 -496.5 -97.5t-144.5 -183.5zM276 1282v203h127v-203h-127zM686 1282v203h129v-203h-129z" />
<glyph unicode="&#xe5;" horiz-adv-x="1083" d="M68 274q0 181 181 268t595 128v39q0 90 -24.5 152.5t-70 94.5t-96.5 45t-116 13q-136 0 -219 -69t-91 -179h-133q22 163 144.5 261.5t306.5 98.5q100 0 175.5 -22t133 -71.5t87.5 -135t30 -205.5q0 -84 -1 -194t-1 -146q0 -114 12 -352h-129l-6 168q-56 -91 -160.5 -143 t-253.5 -52q-156 0 -260 83.5t-104 217.5zM209 276q0 -86 70.5 -138t181.5 -52q81 0 148 22t122.5 69t87 130.5t31.5 196.5v53q-352 -38 -496.5 -97.5t-144.5 -183.5zM360 1425q0 75 54.5 124.5t130.5 49.5q78 0 132 -49.5t54 -124.5t-53.5 -124.5t-132.5 -49.5 q-77 0 -131 50t-54 124zM446 1425q0 -43 30.5 -69.5t68.5 -26.5q39 0 69.5 26.5t30.5 69.5q0 44 -30.5 71.5t-69.5 27.5q-38 0 -68.5 -28t-30.5 -71z" />
<glyph unicode="&#xe6;" horiz-adv-x="1886" d="M68 270q0 56 15 100t42 78.5t76.5 62.5t105 48.5t143 39.5t175.5 33.5t215 31.5v45q0 73 -17 127.5t-45 88t-69 54t-83 28t-94 7.5q-136 0 -216.5 -69t-88.5 -179h-133q22 164 142.5 262t304.5 98q155 0 251.5 -57.5t133.5 -185.5q62 115 166 176t241 61q153 0 267.5 -78 t171.5 -214.5t49 -307.5l-869 4q-1 -200 109.5 -317t284.5 -117q128 0 213 62.5t118 177.5h133q-40 -169 -165 -263t-308 -94q-157 0 -271 68.5t-171 189.5q-116 -258 -463 -258q-158 0 -261 80t-103 217zM209 279q0 -91 70 -142t182 -51q81 0 147.5 22t121.5 69t85.5 130.5 t30.5 196.5v49q-102 -16 -162.5 -26.5t-133 -24t-112.5 -25t-84.5 -27t-67 -31.5t-43 -37.5t-27.5 -46.5t-7 -56zM956 631h725q0 95 -40.5 179.5t-122 140t-187.5 55.5q-156 0 -256.5 -97.5t-118.5 -277.5z" />
<glyph unicode="&#xe7;" horiz-adv-x="1087" d="M68 547q0 261 133.5 417t371.5 156q181 0 304 -108t149 -264h-133q-30 122 -119.5 189t-212.5 67q-72 0 -136 -29t-114 -84t-79 -143.5t-29 -198.5q0 -223 102.5 -341t257.5 -118q134 0 223.5 74t114.5 184h135q-34 -166 -156.5 -267.5t-297.5 -107.5l-45 -71q23 4 51 4 q62 0 102.5 -37t40.5 -100q0 -77 -61 -117.5t-148 -40.5q-85 0 -149 18l28 82q52 -18 99 -18q50 0 83 15.5t33 49.5q0 30 -25 46t-63 16q-50 0 -77 -19l-43 31l90 145q-203 23 -316.5 177t-113.5 393z" />
<glyph unicode="&#xe8;" horiz-adv-x="1142" d="M68 547q0 262 145 417.5t371 155.5q152 0 267.5 -79.5t173.5 -217.5t50 -309h-876q3 -196 114 -310t283 -114q129 0 216.5 63t119.5 177h133q-39 -169 -166.5 -263t-310.5 -94q-240 0 -380 157.5t-140 416.5zM203 631h733q0 95 -41.5 179.5t-124 140t-188.5 55.5 q-156 0 -257.5 -97.5t-121.5 -277.5zM250 1485h194l185 -238h-113z" />
<glyph unicode="&#xe9;" horiz-adv-x="1142" d="M68 547q0 262 145 417.5t371 155.5q152 0 267.5 -79.5t173.5 -217.5t50 -309h-876q3 -196 114 -310t283 -114q129 0 216.5 63t119.5 177h133q-39 -169 -166.5 -263t-310.5 -94q-240 0 -380 157.5t-140 416.5zM203 631h733q0 95 -41.5 179.5t-124 140t-188.5 55.5 q-156 0 -257.5 -97.5t-121.5 -277.5zM516 1247l184 238h195l-266 -238h-113z" />
<glyph unicode="&#xea;" horiz-adv-x="1142" d="M68 547q0 262 145 417.5t371 155.5q152 0 267.5 -79.5t173.5 -217.5t50 -309h-876q3 -196 114 -310t283 -114q129 0 216.5 63t119.5 177h133q-39 -169 -166.5 -263t-310.5 -94q-240 0 -380 157.5t-140 416.5zM203 631h733q0 95 -41.5 179.5t-124 140t-188.5 55.5 q-156 0 -257.5 -97.5t-121.5 -277.5zM258 1247l260 238h146l254 -238h-132l-198 156l-201 -156h-129z" />
<glyph unicode="&#xeb;" horiz-adv-x="1142" d="M68 547q0 262 145 417.5t371 155.5q152 0 267.5 -79.5t173.5 -217.5t50 -309h-876q3 -196 114 -310t283 -114q129 0 216.5 63t119.5 177h133q-39 -169 -166.5 -263t-310.5 -94q-240 0 -380 157.5t-140 416.5zM203 631h733q0 95 -41.5 179.5t-124 140t-188.5 55.5 q-156 0 -257.5 -97.5t-121.5 -277.5zM309 1282v203h127v-203h-127zM719 1282v203h129v-203h-129z" />
<glyph unicode="&#xec;" horiz-adv-x="434" d="M-106 1485h194l184 -238h-112zM154 0v1102h127v-1102h-127z" />
<glyph unicode="&#xed;" horiz-adv-x="434" d="M154 0v1102h127v-1102h-127zM160 1247l184 238h195l-267 -238h-112z" />
<glyph unicode="&#xee;" horiz-adv-x="434" d="M-115 1247l260 238h146l254 -238h-131l-199 156l-201 -156h-129zM154 0v1102h127v-1102h-127z" />
<glyph unicode="&#xef;" horiz-adv-x="434" d="M-53 1282v203h127v-203h-127zM154 0v1102h127v-1102h-127zM356 1282v203h129v-203h-129z" />
<glyph unicode="&#xf0;" horiz-adv-x="1095" d="M66 549q0 259 132.5 415t338.5 156q99 0 182 -48.5t133 -121.5l2 2q-85 188 -283 328l-172 -104l-92 49l176 110q-62 37 -139 70l53 106q109 -43 205 -104l166 104l94 -53l-180 -108q159 -125 252.5 -308.5t93.5 -425.5q0 -163 -37 -288t-103.5 -201.5t-153.5 -115 t-193 -38.5q-213 0 -344 156t-131 420zM203 549q0 -212 92 -336.5t246 -124.5q67 0 128.5 28.5t111.5 83.5t80 145.5t30 203.5q0 112 -29.5 201.5t-79.5 144t-111.5 83t-129.5 28.5q-153 0 -245.5 -124.5t-92.5 -332.5z" />
<glyph unicode="&#xf1;" horiz-adv-x="1138" d="M154 0v1102h127v-187q46 90 135 147.5t231 57.5q371 0 371 -426v-694h-127v659q0 83 -12.5 142.5t-42 107.5t-85.5 72.5t-137 24.5q-144 0 -238.5 -110.5t-94.5 -283.5v-612h-127zM254 1272q13 96 71.5 150.5t135.5 54.5q38 0 77.5 -15.5t67 -34t58.5 -34t55 -15.5 q79 0 102 99h111q-17 -95 -71.5 -150t-133.5 -55q-49 0 -100 25t-93 50t-71 25q-74 0 -98 -100h-111z" />
<glyph unicode="&#xf2;" horiz-adv-x="1132" d="M68 547q0 146 40 258t110 179.5t157.5 101.5t189.5 34t190 -34t158.5 -101.5t111 -180t40.5 -257.5t-40.5 -258t-111 -180.5t-158.5 -101.5t-190 -34q-81 0 -153.5 21t-135.5 66t-109 111t-72.5 162.5t-26.5 213.5zM203 547q0 -228 98 -342.5t264 -114.5t265.5 115 t99.5 342t-99.5 342t-265.5 115t-264 -114.5t-98 -342.5zM244 1485h194l185 -238h-113z" />
<glyph unicode="&#xf3;" horiz-adv-x="1132" d="M68 547q0 146 40 258t110 179.5t157.5 101.5t189.5 34t190 -34t158.5 -101.5t111 -180t40.5 -257.5t-40.5 -258t-111 -180.5t-158.5 -101.5t-190 -34q-81 0 -153.5 21t-135.5 66t-109 111t-72.5 162.5t-26.5 213.5zM203 547q0 -228 98 -342.5t264 -114.5t265.5 115 t99.5 342t-99.5 342t-265.5 115t-264 -114.5t-98 -342.5zM510 1247l184 238h195l-266 -238h-113z" />
<glyph unicode="&#xf4;" horiz-adv-x="1132" d="M68 547q0 146 40 258t110 179.5t157.5 101.5t189.5 34t190 -34t158.5 -101.5t111 -180t40.5 -257.5t-40.5 -258t-111 -180.5t-158.5 -101.5t-190 -34q-81 0 -153.5 21t-135.5 66t-109 111t-72.5 162.5t-26.5 213.5zM203 547q0 -228 98 -342.5t264 -114.5t265.5 115 t99.5 342t-99.5 342t-265.5 115t-264 -114.5t-98 -342.5zM236 1247l260 238h145l254 -238h-131l-199 156l-200 -156h-129z" />
<glyph unicode="&#xf5;" horiz-adv-x="1132" d="M68 547q0 146 40 258t110 179.5t157.5 101.5t189.5 34t190 -34t158.5 -101.5t111 -180t40.5 -257.5t-40.5 -258t-111 -180.5t-158.5 -101.5t-190 -34q-81 0 -153.5 21t-135.5 66t-109 111t-72.5 162.5t-26.5 213.5zM203 547q0 -228 98 -342.5t264 -114.5t265.5 115 t99.5 342t-99.5 342t-265.5 115t-264 -114.5t-98 -342.5zM227 1272q13 96 71.5 150.5t135.5 54.5q38 0 77.5 -15.5t67 -34t58.5 -34t55 -15.5q80 0 103 99h110q-17 -95 -71.5 -150t-133.5 -55q-49 0 -100 25t-93 50t-71 25q-74 0 -98 -100h-111z" />
<glyph unicode="&#xf6;" horiz-adv-x="1132" d="M68 547q0 146 40 258t110 179.5t157.5 101.5t189.5 34t190 -34t158.5 -101.5t111 -180t40.5 -257.5t-40.5 -258t-111 -180.5t-158.5 -101.5t-190 -34q-81 0 -153.5 21t-135.5 66t-109 111t-72.5 162.5t-26.5 213.5zM203 547q0 -228 98 -342.5t264 -114.5t265.5 115 t99.5 342t-99.5 342t-265.5 115t-264 -114.5t-98 -342.5zM297 1282v203h127v-203h-127zM707 1282v203h129v-203h-129z" />
<glyph unicode="&#xf7;" d="M178 496v120h1032v-120h-1032zM608 143v193h178v-193h-178zM608 778v191h178v-191h-178z" />
<glyph unicode="&#xf8;" horiz-adv-x="1132" d="M68 547q0 146 40 258t110 179.5t157.5 101.5t189.5 34q197 0 328 -116l82 96l84 -72l-92 -108q98 -145 98 -373q0 -145 -40.5 -258t-111 -180.5t-158.5 -101.5t-190 -34q-193 0 -319 109l-92 -109l-82 74l100 117q-104 142 -104 383zM203 547q0 -170 57 -281l551 643 q-95 95 -246 95q-166 0 -264 -114.5t-98 -342.5zM328 176q89 -86 237 -86q166 0 265.5 115t99.5 342q0 156 -53 268z" />
<glyph unicode="&#xf9;" horiz-adv-x="1114" d="M121 399v703h127v-668q0 -66 6.5 -116t24.5 -95t47 -73.5t76 -45t110 -16.5q135 0 228.5 110.5t93.5 282.5v621h127v-1102h-127v178q-45 -88 -134 -146.5t-221 -58.5q-358 0 -358 426zM270 1485h195l184 -238h-112z" />
<glyph unicode="&#xfa;" horiz-adv-x="1114" d="M121 399v703h127v-668q0 -66 6.5 -116t24.5 -95t47 -73.5t76 -45t110 -16.5q135 0 228.5 110.5t93.5 282.5v621h127v-1102h-127v178q-45 -88 -134 -146.5t-221 -58.5q-358 0 -358 426zM467 1247l184 238h195l-266 -238h-113z" />
<glyph unicode="&#xfb;" horiz-adv-x="1114" d="M121 399v703h127v-668q0 -66 6.5 -116t24.5 -95t47 -73.5t76 -45t110 -16.5q135 0 228.5 110.5t93.5 282.5v621h127v-1102h-127v178q-45 -88 -134 -146.5t-221 -58.5q-358 0 -358 426zM221 1247l260 238h146l254 -238h-131l-199 156l-201 -156h-129z" />
<glyph unicode="&#xfc;" horiz-adv-x="1114" d="M121 399v703h127v-668q0 -66 6.5 -116t24.5 -95t47 -73.5t76 -45t110 -16.5q135 0 228.5 110.5t93.5 282.5v621h127v-1102h-127v178q-45 -88 -134 -146.5t-221 -58.5q-358 0 -358 426zM283 1282v203h127v-203h-127zM692 1282v203h129v-203h-129z" />
<glyph unicode="&#xfd;" horiz-adv-x="954" d="M0 1102h143l342 -926l332 926h137l-452 -1213q-30 -83 -55.5 -129t-64.5 -74t-85 -36t-125 -8h-72v110h74q37 0 57.5 2t45.5 10t41 25t34 47t35 76l35 88zM399 1247l185 238h194l-266 -238h-113z" />
<glyph unicode="&#xfe;" horiz-adv-x="1179" d="M154 -358v1843h127v-574q59 100 155 154.5t217 54.5q96 0 179.5 -39t146.5 -110.5t99 -181t36 -242.5q0 -266 -131.5 -420t-329.5 -154q-121 0 -217 54t-155 153v-538h-127zM272 547q0 -94 21 -172.5t56 -130.5t81.5 -88t96 -52t100.5 -16q157 0 253.5 122t96.5 337 t-96.5 337t-253.5 122q-51 0 -100.5 -16t-96 -52t-81.5 -88t-56 -130.5t-21 -172.5z" />
<glyph unicode="&#xff;" horiz-adv-x="954" d="M0 1102h143l342 -926l332 926h137l-452 -1213q-30 -83 -55.5 -129t-64.5 -74t-85 -36t-125 -8h-72v110h74q37 0 57.5 2t45.5 10t41 25t34 47t35 76l35 88zM209 1282v203h127v-203h-127zM618 1282v203h130v-203h-130z" />
<glyph unicode="&#x152;" horiz-adv-x="2297" d="M82 743q0 223 85.5 398t241.5 272.5t357 97.5q169 0 298.5 -67.5t209.5 -194.5v236h952v-127h-815v-524h766v-129h-766v-578h815v-127h-952v240q-169 -267 -514 -267q-206 0 -361 98t-236 272t-81 400zM227 743q0 -298 150 -468.5t385 -170.5q236 0 385 170t149 469 t-149 469t-385 170q-235 0 -385 -170.5t-150 -468.5z" />
<glyph unicode="&#x153;" horiz-adv-x="1988" d="M68 547q0 146 40 258t110 179.5t157.5 101.5t189.5 34q144 0 257.5 -66.5t174.5 -201.5q63 129 178 198.5t263 69.5q230 0 364.5 -169.5t122.5 -430.5l-868 6q-1 -200 109 -318t284 -118q128 0 214 62.5t118 177.5h133q-40 -169 -165 -263t-308 -94q-156 0 -270 70 t-177 197q-61 -133 -174.5 -200t-255.5 -67q-81 0 -153.5 21t-135.5 66t-109 111t-72.5 162.5t-26.5 213.5zM203 547q0 -228 98 -342.5t264 -114.5t265.5 115t99.5 342t-99.5 342t-265.5 115t-264 -114.5t-98 -342.5zM1061 631h725q0 95 -40.5 179.5t-122 140t-187.5 55.5 q-156 0 -256.5 -97.5t-118.5 -277.5z" />
<glyph unicode="&#x178;" horiz-adv-x="1177" d="M-20 1485h153l447 -787l460 787h158l-555 -928v-557h-137v561zM317 1597v203h138v-203h-138zM719 1597v203h137v-203h-137z" />
<glyph unicode="&#x2c6;" horiz-adv-x="749" d="M45 1247l260 238h146l254 -238h-132l-198 156l-201 -156h-129z" />
<glyph unicode="&#x2dc;" horiz-adv-x="768" d="M45 1272q13 96 71.5 150.5t135.5 54.5q38 0 77.5 -15.5t67 -34t58.5 -34t55 -15.5q79 0 102 99h111q-17 -95 -71.5 -150t-133.5 -55q-49 0 -100 25t-93 50t-71 25q-74 0 -98 -100h-111z" />
<glyph unicode="&#x2000;" horiz-adv-x="957" />
<glyph unicode="&#x2001;" horiz-adv-x="1915" />
<glyph unicode="&#x2002;" horiz-adv-x="957" />
<glyph unicode="&#x2003;" horiz-adv-x="1915" />
<glyph unicode="&#x2004;" horiz-adv-x="638" />
<glyph unicode="&#x2005;" horiz-adv-x="478" />
<glyph unicode="&#x2006;" horiz-adv-x="319" />
<glyph unicode="&#x2007;" horiz-adv-x="319" />
<glyph unicode="&#x2008;" horiz-adv-x="239" />
<glyph unicode="&#x2009;" horiz-adv-x="383" />
<glyph unicode="&#x200a;" horiz-adv-x="106" />
<glyph unicode="&#x2010;" horiz-adv-x="749" d="M88 489v144h574v-144h-574z" />
<glyph unicode="&#x2011;" horiz-adv-x="749" d="M88 489v144h574v-144h-574z" />
<glyph unicode="&#x2012;" horiz-adv-x="749" d="M88 489v144h574v-144h-574z" />
<glyph unicode="&#x2013;" horiz-adv-x="954" d="M66 496v120h821v-120h-821z" />
<glyph unicode="&#x2014;" horiz-adv-x="1415" d="M66 496v120h1282v-120h-1282z" />
<glyph unicode="&#x2018;" horiz-adv-x="444" d="M133 1012v207l100 266h97l-88 -283h69v-190h-178z" />
<glyph unicode="&#x2019;" horiz-adv-x="444" d="M115 1010l88 282h-70v193h178v-209l-102 -266h-94z" />
<glyph unicode="&#x201a;" horiz-adv-x="444" d="M115 -283l88 283h-70v193h178v-209l-102 -267h-94z" />
<glyph unicode="&#x201c;" horiz-adv-x="747" d="M133 1012v207l100 266h97l-88 -283h69v-190h-178zM436 1012v207l101 266h96l-88 -283h69v-190h-178z" />
<glyph unicode="&#x201d;" horiz-adv-x="747" d="M115 1010l88 282h-70v193h178v-209l-102 -266h-94zM418 1010l88 282h-70v193h178v-209l-102 -266h-94z" />
<glyph unicode="&#x201e;" horiz-adv-x="747" d="M115 -283l88 283h-70v193h178v-209l-102 -267h-94zM418 -283l88 283h-70v193h178v-209l-102 -267h-94z" />
<glyph unicode="&#x2022;" horiz-adv-x="915" d="M88 571q0 150 106.5 256.5t254.5 106.5q160 0 268 -105.5t108 -257.5q0 -160 -107.5 -267t-268.5 -107q-149 0 -255 108t-106 266z" />
<glyph unicode="&#x2026;" horiz-adv-x="1333" d="M133 0v193h178v-193h-178zM578 0v193h178v-193h-178zM1022 0v193h178v-193h-178z" />
<glyph unicode="&#x202f;" horiz-adv-x="383" />
<glyph unicode="&#x2039;" horiz-adv-x="542" d="M33 580l321 464h135l-307 -462l307 -465h-133z" />
<glyph unicode="&#x203a;" horiz-adv-x="542" d="M53 117l307 465l-307 462h135l322 -464l-324 -463h-133z" />
<glyph unicode="&#x205f;" horiz-adv-x="478" />
<glyph unicode="&#x20ac;" horiz-adv-x="1488" d="M0 526l92 119h191q-2 33 -2 100q0 60 2 91h-283l92 118h205q44 260 195.5 408.5t398.5 148.5q138 0 256 -54t197.5 -159t99.5 -243h-135q-17 108 -81.5 187.5t-155 118t-193.5 38.5q-171 0 -289.5 -117t-159.5 -328h703l-93 -118h-626q-2 -29 -2 -91q0 -34 4 -100h530 l-94 -119h-422q40 -208 157 -324t292 -116q164 0 285 92.5t145 251.5h135q-30 -210 -186 -333.5t-377 -123.5q-242 0 -391 147t-193 406h-297z" />
<glyph unicode="&#x2122;" horiz-adv-x="1732" d="M45 1364v121h655v-121h-268v-698h-121v698h-266zM791 666v819h217l235 -674l230 674h217v-819h-121v712l-256 -712h-146l-256 712v-712h-120z" />
<glyph unicode="&#x25fc;" horiz-adv-x="1105" d="M0 0v1106h1106v-1106h-1106z" />
<glyph unicode="&#xfb01;" horiz-adv-x="997" d="M33 991v111h151v137q0 71 10.5 115t39 75t78 43.5t128.5 12.5h90v-117h-63q-57 0 -84 -3.5t-45.5 -20t-22.5 -43t-4 -80.5v-119h219v-111h-219v-991h-127v991h-151zM717 0v1102h127v-1102h-127zM717 1282v203h127v-203h-127z" />
<glyph unicode="&#xfb02;" horiz-adv-x="997" d="M33 991v111h151v137q0 71 10.5 115t39 75t78 43.5t128.5 12.5h90v-117h-63q-57 0 -84 -3.5t-45.5 -20t-22.5 -43t-4 -80.5v-119h219v-111h-219v-991h-127v991h-151zM717 0v1485h127v-1485h-127z" />
</font>
</defs>
</svg>
